<?xml version="1.0" encoding="UTF-8" standalone="no"?><svg xmlns="http://www.w3.org/2000/svg" width="225.7" height="239.2" viewBox="0 0 29.9 31.6"><g stroke="#000000" stroke-linejoin="round" stroke-width="0.3" paint-order="fill markers stroke"><path fill="#0000ff" d="m75.8 134.3 3.4 2.4v6.7l-3.4-2.4z" transform="translate(-68.8 -112)"/><path fill="#0000ff" d="m72.4 131.9 3.4 2.4v6.7l-3.4-2.4z" transform="translate(-68.8 -112)"/><path fill="#ffa500" d="m69 129.4 3.4 2.5v6.7l-3.5-2.4z" transform="translate(-68.8 -112)"/><path fill="#0000ff" d="m75.8 127.5 3.4 2.4v6.8l-3.4-2.4z" transform="translate(-68.8 -112)"/><path fill="#0000ff" d="m72.4 125.1 3.4 2.4v6.8l-3.4-2.4z" transform="translate(-68.8 -112)"/><path fill="#0000ff" d="m69 122.7 3.4 2.4v6.8l-3.5-2.5z" transform="translate(-68.8 -112)"/><path fill="#666666" d="m75.8 120.8 3.4 2.4v6.7l-3.4-2.4z" transform="translate(-68.8 -112)"/><path fill="#666666" d="m72.4 118.3 3.4 2.5v6.7l-3.4-2.4z" transform="translate(-68.8 -112)"/><path fill="#666666" d="m69 116 3.4 2.3v6.8l-3.5-2.4z" transform="translate(-68.8 -112)"/><path fill="#ff0000" d="m92 134.1 6.5-1.3v6.8l-6.4 1.3z" transform="translate(-68.8 -112)"/><path fill="#ff0000" d="m85.6 135.4 6.5-1.3v6.8l-6.5 1.2z" transform="translate(-68.8 -112)"/><path fill="#ff0000" d="m79.2 136.7 6.4-1.3v6.7l-6.4 1.3z" transform="translate(-68.8 -112)"/><path fill="#ff0000" d="m92 127.4 6.5-1.3v6.7l-6.4 1.3z" transform="translate(-68.8 -112)"/><path fill="#ff0000" d="m85.6 128.6 6.5-1.2v6.7l-6.5 1.3z" transform="translate(-68.8 -112)"/><path fill="#ff0000" d="m79.2 130 6.4-1.4v6.8l-6.4 1.3z" transform="translate(-68.8 -112)"/><path fill="#666666" d="m92 120.6 6.5-1.3v6.8l-6.4 1.3z" transform="translate(-68.8 -112)"/><path fill="#666666" d="m85.6 121.9 6.5-1.3v6.8l-6.5 1.2z" transform="translate(-68.8 -112)"/><path fill="#666666" d="m79.2 123.2 6.4-1.3v6.7l-6.4 1.3z" transform="translate(-68.8 -112)"/><path fill="#666666" d="m88.6 118.2 6.5-1.3 3.4 2.4-6.4 1.3z" transform="translate(-68.8 -112)"/><path fill="#666666" d="m82.2 119.5 6.4-1.3 3.5 2.4-6.5 1.3z" transform="translate(-68.8 -112)"/><path fill="#666666" d="m75.8 120.8 6.4-1.3 3.4 2.4-6.4 1.3z" transform="translate(-68.8 -112)"/><path fill="#666666" d="m85.2 115.8 6.5-1.3 3.4 2.4-6.5 1.3z" transform="translate(-68.8 -112)"/><path fill="#ffff00" d="m78.8 117 6.4-1.2 3.4 2.4-6.4 1.3z" transform="translate(-68.8 -112)"/><path fill="#666666" d="m72.4 118.3 6.4-1.2 3.4 2.4-6.4 1.3z" transform="translate(-68.8 -112)"/><path fill="#666666" d="m81.8 113.4 6.4-1.3 3.5 2.4-6.5 1.3z" transform="translate(-68.8 -112)"/><path fill="#666666" d="m75.4 114.6 6.4-1.2 3.4 2.4-6.4 1.3z" transform="translate(-68.8 -112)"/><path fill="#666666" d="m69 116 6.4-1.4 3.4 2.5-6.4 1.2z" transform="translate(-68.8 -112)"/></g></svg>